<svg width="147" height="25" viewBox="0 0 147 25" fill="none" xmlns="http://www.w3.org/2000/svg">
<path d="M40.8952 17.0725V8.81646C40.8952 7.23946 41.2612 5.99646 41.9932 5.08646C42.7262 4.17646 43.6432 3.72146 44.7432 3.72146C46.9012 3.72146 47.9802 5.29846 47.9802 8.45246V17.0725H51.7622V7.49246C51.7622 5.07746 51.2622 3.27246 50.2592 2.07546C49.2572 0.878456 47.8262 0.280456 45.9652 0.280456C44.7432 0.280456 43.6252 0.514456 42.6132 0.983456C41.6069 1.44685 40.7283 2.14799 40.0532 3.02646H39.9872C39.0072 1.19546 37.3672 0.280456 35.0652 0.280456C34.0962 0.280456 33.1632 0.497456 32.2662 0.933456C31.3546 1.38073 30.5515 2.02166 29.9132 2.81146H29.8632V0.528456H26.0812V17.0555H29.8632V8.81646C29.8632 7.23946 30.2352 5.99646 30.9782 5.08646C31.7212 4.17646 32.6712 3.72146 33.8272 3.72146C36.0172 3.72146 37.1132 5.29846 37.1132 8.45246V17.0725H40.8952ZM61.9962 17.3205C64.2422 17.3205 65.9932 16.4935 67.2482 14.8385H67.2982V17.0555H70.9142V0.528456H67.1322V2.51346H67.0662C65.8112 1.02446 64.1112 0.280456 61.9632 0.280456C60.9015 0.272916 59.8494 0.483356 58.8723 0.898753C57.8951 1.31415 57.0136 1.92567 56.2822 2.69546C55.5772 3.44546 55.0222 4.35546 54.6142 5.42546C54.2016 6.52503 53.9945 7.69105 54.0032 8.86546C54.0032 10.1235 54.2062 11.2815 54.6132 12.3405C55.0212 13.3995 55.5772 14.2925 56.2822 15.0205C56.9993 15.7569 57.8629 16.3346 58.8172 16.7165C59.8275 17.1239 60.9079 17.3291 61.9972 17.3205H61.9962ZM62.5912 13.8795C61.1922 13.8795 60.0532 13.4135 59.1722 12.4815C58.2922 11.5495 57.8512 10.3495 57.8512 8.88246C57.8512 7.32746 58.3052 6.07846 59.2132 5.13546C60.1222 4.19246 61.2532 3.72146 62.6072 3.72146C63.9502 3.72146 65.0652 4.21446 65.9522 5.20146C66.8382 6.18946 67.2822 7.41646 67.2822 8.88246C67.2822 10.3495 66.8272 11.5495 65.9192 12.4815C65.0102 13.4135 63.9012 13.8795 62.5912 13.8795ZM89.7032 17.0725V7.32746C89.7032 4.93446 89.1672 3.16146 88.0932 2.00846C87.0212 0.856456 85.5362 0.280456 83.6432 0.280456C82.5902 0.274751 81.5482 0.494686 80.5872 0.925456C79.6313 1.35435 78.7846 1.99358 78.1102 2.79546H78.0602V0.527456H74.2782V17.0545H78.0602V8.75046C78.0602 7.16246 78.4482 5.92746 79.2242 5.04446C80.0012 4.16246 81.0382 3.72146 82.3372 3.72146C82.9322 3.72146 83.4412 3.79846 83.8652 3.95246C84.2892 4.10746 84.6612 4.35846 84.9802 4.70546C85.3002 5.05346 85.5362 5.52446 85.6902 6.12046C85.8442 6.71546 85.9212 7.44346 85.9212 8.30346V17.0725H89.7032ZM99.9212 17.3205C102.167 17.3205 103.917 16.4935 105.173 14.8385H105.223V17.0555H108.839V0.528456H105.057V2.51346H104.991C103.736 1.02446 102.035 0.280456 99.8882 0.280456C98.8263 0.272779 97.7741 0.483152 96.7967 0.898553C95.8194 1.31395 94.9377 1.92554 94.2062 2.69546C93.5022 3.44546 92.9462 4.35546 92.5382 5.42546C92.126 6.52509 91.9192 7.69111 91.9282 8.86546C91.9282 10.1235 92.1312 11.2815 92.5382 12.3405C92.9462 13.3995 93.5022 14.2925 94.2062 15.0205C94.9236 15.757 95.7876 16.3348 96.7422 16.7165C97.7522 17.1238 98.8323 17.329 99.9212 17.3205ZM100.515 13.8795C99.1172 13.8795 97.9772 13.4135 97.0972 12.4815C96.2162 11.5495 95.7752 10.3495 95.7752 8.88246C95.7752 7.32746 96.2302 6.07846 97.1382 5.13546C98.0462 4.19246 99.1782 3.72146 100.532 3.72146C101.875 3.72146 102.99 4.21446 103.876 5.20146C104.762 6.18946 105.206 7.41646 105.206 8.88246C105.206 10.3495 104.751 11.5495 103.843 12.4815C102.935 13.4135 101.825 13.8795 100.515 13.8795ZM119.585 24.0045C120.785 24.0045 121.859 23.8645 122.805 23.5825C123.752 23.3015 124.548 22.9095 125.192 22.4075C125.84 21.9016 126.384 21.2755 126.794 20.5635C127.223 19.8222 127.532 19.018 127.71 18.1805C127.898 17.3205 127.991 16.3775 127.991 15.3515V0.528456H124.209V2.26546H124.143C123.466 1.61746 122.666 1.11093 121.79 0.775456C120.908 0.43449 119.969 0.260863 119.023 0.263456C117.515 0.263456 116.161 0.621456 114.961 1.33846C113.761 2.05546 112.827 3.05146 112.161 4.32546C111.495 5.59846 111.162 7.03046 111.162 8.61846C111.162 10.2285 111.512 11.6565 112.211 12.9035C112.91 14.1495 113.871 15.1065 115.093 15.7735C116.315 16.4405 117.691 16.7745 119.222 16.7745C121.269 16.7745 122.938 16.1015 124.226 14.7565H124.292V16.5095C124.292 17.6795 123.862 18.6495 123.004 19.4215C122.144 20.1935 120.934 20.5795 119.37 20.5795C118.302 20.5795 117.364 20.4475 116.554 20.1825C115.745 19.9175 114.812 19.5045 113.755 18.9425L112.863 22.2835C113.788 22.8355 114.829 23.2595 115.985 23.5575C117.141 23.8555 118.341 24.0045 119.585 24.0045ZM119.717 13.2845C118.352 13.2845 117.226 12.8505 116.34 11.9845C115.453 11.1195 115.01 9.95846 115.01 8.50246C115.01 7.10246 115.445 5.96046 116.315 5.07746C117.185 4.19546 118.319 3.75446 119.717 3.75446C121.049 3.75446 122.159 4.18946 123.045 5.06146C123.931 5.93246 124.375 7.06346 124.375 8.45246C124.375 9.85346 123.942 11.0085 123.078 11.9185C122.214 12.8285 121.093 13.2835 119.717 13.2835V13.2845ZM138.803 17.3205C140.345 17.3205 141.702 17.0395 142.874 16.4765C144.047 15.9145 145.007 15.1535 145.756 14.1935L143.114 11.9275C142.079 13.2285 140.708 13.8795 139.001 13.8795C137.791 13.8795 136.764 13.5425 135.921 12.8695C135.079 12.1975 134.537 11.2765 134.294 10.1075H146.318C146.384 9.71046 146.417 9.20746 146.417 8.60146C146.417 7.00246 146.092 5.57446 145.442 4.31646C144.812 3.07938 143.837 2.05107 142.635 1.35546C141.413 0.638456 140.003 0.280456 138.407 0.280456C137.314 0.272266 136.23 0.483076 135.219 0.900456C134.229 1.31446 133.375 1.89046 132.659 2.62946C131.944 3.36846 131.382 4.26746 130.975 5.32546C130.568 6.38546 130.364 7.53746 130.364 8.78346C130.364 10.4715 130.733 11.9685 131.47 13.2755C132.208 14.5825 133.216 15.5835 134.493 16.2785C135.77 16.9735 137.207 17.3205 138.803 17.3205ZM142.618 7.04646H134.361C134.625 5.98746 135.137 5.16846 135.896 4.58946C136.656 4.01046 137.559 3.72146 138.605 3.72146C139.662 3.72146 140.535 4.01946 141.223 4.61446C141.911 5.21046 142.376 6.02046 142.618 7.04646Z" fill="white"/>
<path fill-rule="evenodd" clip-rule="evenodd" d="M3.66723 10.5494C5.20523 10.5494 6.45223 11.8284 6.45223 13.4064C6.45223 14.9834 5.20523 16.2634 3.66723 16.2634C2.12823 16.2634 0.881226 14.9834 0.881226 13.4064C0.881226 11.8284 2.12823 10.5494 3.66723 10.5494ZM3.66723 0.263428C5.20523 0.263428 6.45123 1.54343 6.45123 3.12043C6.45123 4.69843 5.20423 5.97743 3.66623 5.97743C2.12823 5.97743 0.881226 4.69843 0.881226 3.12043C0.881226 1.54343 2.12823 0.263428 3.66723 0.263428ZM13.6952 0.263428C15.2342 0.263428 16.4812 1.54343 16.4812 3.12043C16.4812 4.69843 15.2342 5.97743 13.6952 5.97743C12.1572 5.97743 10.9102 4.69843 10.9102 3.12043C10.9102 1.54343 12.1572 0.263428 13.6952 0.263428Z" fill="#F3603C"/>
<path opacity="0.5" d="M13.6952 16.3775C15.2339 16.3775 16.4812 15.0983 16.4812 13.5205C16.4812 11.9426 15.2339 10.6635 13.6952 10.6635C12.1566 10.6635 10.9092 11.9426 10.9092 13.5205C10.9092 15.0983 12.1566 16.3775 13.6952 16.3775Z" fill="#F3603C"/>
</svg>
