<svg width="30" height="28" viewBox="0 0 30 28" fill="none" xmlns="http://www.w3.org/2000/svg">
<path fill-rule="evenodd" clip-rule="evenodd" d="M14.3531 26.9675L15 25.7188L15.6469 26.9675C15.4469 27.0708 15.2251 27.1246 15 27.1246C14.7749 27.1246 14.5531 27.0708 14.3531 26.9675ZM14.3531 26.9675L15 25.7188L15.6469 26.9675L15.6506 26.9656L15.6619 26.96L15.6956 26.9413C15.8918 26.8395 16.0856 26.7332 16.2769 26.6225C18.5613 25.3215 20.7167 23.806 22.7138 22.0963C26.1675 19.1206 30 14.6563 30 9.3125C30 4.3175 26.0888 0.875 22.0312 0.875C19.1306 0.875 16.5881 2.37875 15 4.6625C13.4119 2.37875 10.8694 0.875 7.96875 0.875C3.91125 0.875 0 4.3175 0 9.3125C0 14.6563 3.83437 19.1206 7.28438 22.0963C9.45128 23.9487 11.8038 25.5723 14.3044 26.9413L14.3381 26.96L14.3494 26.9656H14.3531V26.9675Z" fill="#CC2424"/>
</svg>
